{
	"asset":{
		"generator":"Khronos glTF Blender I/O v3.6.28",
		"version":"2.0"
	},
	"scene":0,
	"scenes":[
		{
			"name":"Scene",
			"nodes":[
				0,
				1,
				2
			]
		}
	],
	"nodes":[
		{
			"mesh":0,
			"name":"Pillar"
		},
		{
			"mesh":1,
			"name":"Cap",
			"translation":[
				0,
				10.418363571166992,
				0
			]
		},
		{
			"mesh":2,
			"name":"Lamp",
			"translation":[
				2.6750195026397705,
				12.264445304870605,
				0.0011415556073188782
			]
		}
	],
	"materials":[
		{
			"doubleSided":true,
			"name":"Pillar",
			"normalTexture":{
				"index":0
			},
			"pbrMetallicRoughness":{
				"baseColorTexture":{
					"index":1
				},
				"metallicRoughnessTexture":{
					"index":2
				}
			}
		},
		{
			"doubleSided":true,
			"name":"Cap",
			"normalTexture":{
				"index":3
			},
			"pbrMetallicRoughness":{
				"baseColorTexture":{
					"index":4
				},
				"metallicRoughnessTexture":{
					"index":5
				}
			}
		},
		{
			"doubleSided":true,
			"emissiveFactor":[
				1,
				1,
				1
			],
			"emissiveTexture":{
				"index":6
			},
			"name":"Lamp",
			"normalTexture":{
				"index":7
			},
			"pbrMetallicRoughness":{
				"baseColorTexture":{
					"index":8
				},
				"metallicRoughnessTexture":{
					"index":9
				}
			}
		}
	],
	"meshes":[
		{
			"name":"Cylinder",
			"primitives":[
				{
					"attributes":{
						"POSITION":0,
						"NORMAL":1,
						"TEXCOORD_0":2
					},
					"indices":3,
					"material":0
				}
			]
		},
		{
			"name":"Cylinder.001",
			"primitives":[
				{
					"attributes":{
						"POSITION":4,
						"NORMAL":5,
						"TEXCOORD_0":6
					},
					"indices":7,
					"material":1
				}
			]
		},
		{
			"name":"Cube",
			"primitives":[
				{
					"attributes":{
						"POSITION":8,
						"NORMAL":9,
						"TEXCOORD_0":10
					},
					"indices":11,
					"material":2
				}
			]
		}
	],
	"textures":[
		{
			"sampler":0,
			"source":0
		},
		{
			"sampler":0,
			"source":1
		},
		{
			"sampler":0,
			"source":2
		},
		{
			"sampler":0,
			"source":3
		},
		{
			"sampler":0,
			"source":4
		},
		{
			"sampler":0,
			"source":5
		},
		{
			"sampler":0,
			"source":6
		},
		{
			"sampler":0,
			"source":7
		},
		{
			"sampler":0,
			"source":8
		},
		{
			"sampler":0,
			"source":9
		}
	],
	"images":[
		{
			"mimeType":"image/png",
			"name":"StreetLamp_Pillar_nor",
			"uri":"StreetLamp_Pillar_nor.png"
		},
		{
			"mimeType":"image/png",
			"name":"StreetLamp_Pillar_base",
			"uri":"StreetLamp_Pillar_base.png"
		},
		{
			"mimeType":"image/png",
			"name":"StreetLamp_Pillar_metal-StreetLamp_Pillar_rough",
			"uri":"StreetLamp_Pillar_metal-StreetLamp_Pillar_rough.png"
		},
		{
			"mimeType":"image/png",
			"name":"StreetLamp_Cap_nor",
			"uri":"StreetLamp_Cap_nor.png"
		},
		{
			"mimeType":"image/png",
			"name":"StreetLamp_Cap_base",
			"uri":"StreetLamp_Cap_base.png"
		},
		{
			"mimeType":"image/png",
			"name":"StreetLamp_Cap_metal-StreetLamp_Cap_rough",
			"uri":"StreetLamp_Cap_metal-StreetLamp_Cap_rough.png"
		},
		{
			"mimeType":"image/png",
			"name":"StreetLamp_Lamp_emission",
			"uri":"StreetLamp_Lamp_emission.png"
		},
		{
			"mimeType":"image/png",
			"name":"StreetLamp_Lamp_nor",
			"uri":"StreetLamp_Lamp_nor.png"
		},
		{
			"mimeType":"image/png",
			"name":"StreetLamp_Lamp_albedo",
			"uri":"StreetLamp_Lamp_albedo.png"
		},
		{
			"mimeType":"image/png",
			"name":"StreetLamp_Lamp_metal-StreetLamp_Lamp_rough",
			"uri":"StreetLamp_Lamp_metal-StreetLamp_Lamp_rough.png"
		}
	],
	"accessors":[
		{
			"bufferView":0,
			"componentType":5126,
			"count":284,
			"max":[
				0.2499999850988388,
				10.46950912475586,
				0.2499999850988388
			],
			"min":[
				-0.2499999850988388,
				-1,
				-0.2499999850988388
			],
			"type":"VEC3"
		},
		{
			"bufferView":1,
			"componentType":5126,
			"count":284,
			"type":"VEC3"
		},
		{
			"bufferView":2,
			"componentType":5126,
			"count":284,
			"type":"VEC2"
		},
		{
			"bufferView":3,
			"componentType":5123,
			"count":756,
			"type":"SCALAR"
		},
		{
			"bufferView":4,
			"componentType":5126,
			"count":374,
			"max":[
				2.654521942138672,
				1.8605892658233643,
				0.20000000298023224
			],
			"min":[
				-0.20000000298023224,
				-0.125,
				-0.20000000298023224
			],
			"type":"VEC3"
		},
		{
			"bufferView":5,
			"componentType":5126,
			"count":374,
			"type":"VEC3"
		},
		{
			"bufferView":6,
			"componentType":5126,
			"count":374,
			"type":"VEC2"
		},
		{
			"bufferView":7,
			"componentType":5123,
			"count":1524,
			"type":"SCALAR"
		},
		{
			"bufferView":8,
			"componentType":5126,
			"count":62,
			"max":[
				0.8469288349151611,
				0.032024383544921875,
				0.21250653266906738
			],
			"min":[
				-0.125,
				-0.125,
				-0.23438316583633423
			],
			"type":"VEC3"
		},
		{
			"bufferView":9,
			"componentType":5126,
			"count":62,
			"type":"VEC3"
		},
		{
			"bufferView":10,
			"componentType":5126,
			"count":62,
			"type":"VEC2"
		},
		{
			"bufferView":11,
			"componentType":5123,
			"count":120,
			"type":"SCALAR"
		}
	],
	"bufferViews":[
		{
			"buffer":0,
			"byteLength":3408,
			"byteOffset":0,
			"target":34962
		},
		{
			"buffer":0,
			"byteLength":3408,
			"byteOffset":3408,
			"target":34962
		},
		{
			"buffer":0,
			"byteLength":2272,
			"byteOffset":6816,
			"target":34962
		},
		{
			"buffer":0,
			"byteLength":1512,
			"byteOffset":9088,
			"target":34963
		},
		{
			"buffer":0,
			"byteLength":4488,
			"byteOffset":10600,
			"target":34962
		},
		{
			"buffer":0,
			"byteLength":4488,
			"byteOffset":15088,
			"target":34962
		},
		{
			"buffer":0,
			"byteLength":2992,
			"byteOffset":19576,
			"target":34962
		},
		{
			"buffer":0,
			"byteLength":3048,
			"byteOffset":22568,
			"target":34963
		},
		{
			"buffer":0,
			"byteLength":744,
			"byteOffset":25616,
			"target":34962
		},
		{
			"buffer":0,
			"byteLength":744,
			"byteOffset":26360,
			"target":34962
		},
		{
			"buffer":0,
			"byteLength":496,
			"byteOffset":27104,
			"target":34962
		},
		{
			"buffer":0,
			"byteLength":240,
			"byteOffset":27600,
			"target":34963
		}
	],
	"samplers":[
		{
			"magFilter":9729,
			"minFilter":9987
		}
	],
	"buffers":[
		{
			"byteLength":27840,
			"uri":"StreetLamp.bin"
		}
	]
}
